<?xml version="1.0" standalone="no"?>
<!DOCTYPE svg PUBLIC "-//W3C//DTD SVG 20010904//EN"
 "http://www.w3.org/TR/2001/REC-SVG-20010904/DTD/svg10.dtd">
<svg version="1.0" xmlns="http://www.w3.org/2000/svg"
 width="528.000000pt" height="81.000000pt" viewBox="0 0 528.000000 81.000000"
 preserveAspectRatio="xMidYMid meet">
<metadata>
Created by potrace 1.15, written by Peter Selinger 2001-2017
</metadata>
<g transform="translate(0.000000,81.000000) scale(0.100000,-0.100000)"
fill="#000000" stroke="none">
<path d="M1943 740 c-124 -26 -211 -124 -233 -264 -26 -164 45 -320 173 -377
73 -33 203 -34 264 -2 74 40 90 82 49 130 -24 27 -24 28 -72 14 -123 -36 -191
-19 -233 58 -32 59 -33 157 -3 218 40 77 111 100 215 68 53 -16 79 -10 97 25
24 45 3 88 -57 119 -29 15 -149 22 -200 11z"/>
<path d="M2513 740 c-92 -19 -174 -85 -215 -175 -19 -42 -23 -67 -23 -155 0
-92 3 -112 26 -161 56 -119 142 -173 279 -174 138 0 216 51 196 129 -10 42
-46 53 -110 33 -90 -29 -143 -19 -194 35 -57 62 -52 221 10 285 47 49 103 53
223 18 32 -10 65 28 65 75 0 48 -34 76 -111 90 -59 11 -87 11 -146 0z"/>
<path d="M3076 740 c-99 -18 -191 -101 -221 -202 -22 -75 -20 -205 5 -272 28
-72 87 -138 152 -167 72 -32 202 -34 268 -3 147 69 215 253 160 435 -19 64
-29 82 -78 129 -75 73 -171 100 -286 80z m144 -147 c15 -9 39 -35 52 -57 31
-54 33 -190 4 -248 -50 -102 -205 -104 -256 -3 -8 17 -16 67 -18 111 -5 100
18 162 70 194 41 25 109 26 148 3z"/>
<path d="M4943 740 c-96 -20 -170 -79 -212 -170 -23 -48 -26 -68 -26 -160 0
-99 2 -110 33 -172 67 -137 216 -198 371 -152 92 27 128 91 81 142 -24 26 -43
27 -100 7 -124 -44 -215 14 -227 144 -7 79 10 141 52 181 42 41 94 48 176 26
61 -18 61 -18 85 5 46 43 25 114 -41 139 -38 14 -145 20 -192 10z"/>
<path d="M700 720 c-19 -19 -20 -33 -20 -310 0 -277 1 -291 20 -310 25 -25 71
-26 101 -1 l24 19 0 292 0 292 -24 19 c-30 25 -76 24 -101 -1z"/>
<path d="M1017 720 c-14 -11 -28 -28 -31 -38 -11 -35 -86 -495 -86 -528 0 -42
30 -74 70 -74 60 0 71 29 109 290 14 98 20 118 26 95 46 -193 93 -335 118
-362 24 -27 72 -30 104 -8 23 16 63 126 107 297 25 98 36 118 36 67 0 -49 37
-288 51 -327 19 -55 79 -70 117 -29 28 30 28 37 -8 247 -60 355 -57 343 -85
368 -36 31 -98 30 -129 -1 -24 -24 -69 -155 -109 -317 -12 -50 -24 -90 -27
-90 -3 0 -14 33 -23 74 -34 145 -88 300 -115 329 -32 34 -87 37 -125 7z"/>
<path d="M3885 715 l-25 -24 0 -276 0 -276 25 -24 c23 -24 28 -25 170 -25 132
0 147 2 165 20 29 29 26 74 -6 99 -23 18 -41 21 -115 21 l-89 0 0 233 c0 231
0 234 -23 255 -31 29 -72 28 -102 -3z"/>
<path d="M4335 715 l-25 -24 0 -276 0 -276 25 -24 c23 -24 28 -25 170 -25 132
0 147 2 165 20 29 29 26 74 -6 99 -23 18 -41 21 -115 21 l-89 0 0 233 c0 231
0 234 -23 255 -31 29 -72 28 -102 -3z"/>
<path d="M75 706 l-25 -25 0 -263 c0 -145 3 -273 6 -284 9 -34 47 -44 173 -44
142 0 206 16 262 67 65 59 92 122 97 229 7 154 -44 256 -155 311 -54 26 -69
28 -195 31 -136 4 -137 4 -163 -22z m290 -140 c59 -39 86 -128 65 -214 -19
-83 -76 -122 -176 -122 l-54 0 0 181 0 182 70 -5 c41 -3 80 -12 95 -22z"/>
</g>
</svg>
